<svg width="122" height="75" viewBox="0 0 122 75" fill="none" xmlns="http://www.w3.org/2000/svg">
<g clip-path="url(#clip0_2247_261)">
<path d="M65.338 37.8444C60.2706 34.7066 55.3568 31.6837 50.3663 28.5459C54.8578 25.676 59.2341 22.9209 63.6872 20.051C63.3801 19.8214 63.1882 19.7066 62.9962 19.5918C57.0076 15.8036 50.9805 12.0153 44.9918 8.22704C40.6923 5.5102 36.4311 2.7551 32.1315 0H31.9012C31.2486 0.229592 30.6344 0.497449 30.0585 0.841837C20.3461 6.39031 10.7105 11.9388 1.07489 17.5255C0.652612 17.7934 0.230334 18.023 0 18.4821V56.3648C10.7873 62.5255 21.613 68.648 32.4003 74.8087C33.168 75.2296 33.5903 74.8852 34.1278 74.5791C42.0743 69.6429 49.9824 64.7066 57.9289 59.7321C60.3474 58.2398 62.7659 56.7092 65.2612 55.1403C60.4626 52.1939 55.7407 49.324 50.8653 46.3393C55.7791 43.4694 60.5009 40.676 65.338 37.8061V37.8444ZM58.3512 37.7679C55.8559 39.2219 53.4758 40.6378 51.134 42.0153C50.0975 42.6276 49.0227 43.2398 47.9862 43.852C47.6407 44.0434 47.3719 44.1964 46.9497 43.9668C43.4563 41.824 39.9629 39.7194 36.3159 37.5C38.5809 36.0459 40.6923 34.7066 42.842 33.3291C43.1492 33.1378 43.4947 32.9082 43.8018 32.7168C44.8767 32.1046 45.8748 30.8418 46.988 30.9184C48.0629 30.9566 49.0994 32.0281 50.0975 32.6786C52.7848 34.3622 55.5104 36.0459 58.3128 37.8061L58.3512 37.7679ZM32.4386 39.949C32.7458 39.7577 32.9761 39.6811 33.36 39.9107C36.7766 42.0153 40.2316 44.1199 43.725 46.2628C42.9572 46.9515 42.0743 47.3342 41.2681 47.8316C38.5425 49.4388 35.8169 51.0077 33.1296 52.6531C32.5922 52.9975 32.2083 53.0357 31.5941 52.6531C28.4078 50.6633 25.1447 48.7883 21.7665 46.7219C25.4519 44.3878 28.9452 42.1684 32.4386 39.949ZM32.3235 35.051C28.9452 32.9464 25.5286 30.8801 22.112 28.8138C22.0736 28.8138 22.0352 28.699 21.9585 28.5842C25.4519 26.4796 28.9836 24.3367 32.477 22.2321C32.8225 22.0026 33.0913 22.1173 33.3984 22.3087C36.6998 24.375 40.0396 26.4413 43.533 28.5842C42.0743 29.5408 40.6923 30.4209 39.3103 31.301C37.3908 32.5255 35.4714 33.75 33.5519 34.9745C33.1296 35.2423 32.8225 35.3571 32.3235 35.051ZM58.3896 55.1786C56.4701 56.4031 54.5891 57.551 52.7464 58.699C46.6042 62.5255 40.5003 66.352 34.3965 70.2168C33.4751 70.7908 32.7841 70.8673 31.786 70.2934C22.803 65.1275 13.7432 60 4.72184 54.9107C3.99245 54.4898 3.64695 54.0689 3.64695 53.1505C3.68534 42.6658 3.64695 32.1811 3.64695 21.6582C3.64695 20.8546 3.8005 20.3954 4.56828 19.9745C13.3977 14.9235 22.2272 9.83418 31.0183 4.70663C31.6709 4.32398 32.1315 4.36224 32.7458 4.7449C40.5387 9.68112 48.37 14.6173 56.2014 19.5536C56.7772 19.9362 56.8924 20.1276 56.2014 20.5102C53.2838 22.3469 50.3279 24.1837 47.4487 26.0969C46.8729 26.4796 46.5274 26.1735 46.1435 25.9439C41.9591 23.3418 37.7363 20.7398 33.5519 18.1378C33.1296 17.8699 32.7841 17.7934 32.3235 18.0612C26.5267 21.5816 20.73 25.0638 14.8181 28.6224C19.7319 31.6071 24.4921 34.5153 29.4059 37.5383C24.5305 40.6378 19.7703 43.699 14.8565 46.7985C17.6205 48.4439 20.1926 50.0128 22.803 51.5816C25.7206 53.3036 28.5997 55.0638 31.5173 56.824C32.0548 57.1684 32.4386 57.2066 33.0529 56.824C37.506 54.1837 41.9591 51.5816 46.4122 48.9413C46.988 48.5969 47.4103 48.4056 48.0629 48.8265C51.4412 50.9311 54.8578 52.9974 58.3896 55.1786Z" fill="white"/>
<path d="M84.0331 44.6559C82.2288 43.0487 81.0771 40.5232 81.0771 37.5768C81.0771 34.6304 81.9985 32.4875 83.9179 30.6508C85.8374 28.8141 88.0639 27.8574 90.6744 27.8574C93.2848 27.8574 95.1659 28.5845 96.5095 29.7707C97.8531 30.8804 98.7744 32.1814 99.1967 33.5207L96.5095 34.7452C95.5882 32.3345 93.5919 30.6508 90.636 30.6508C87.68 30.6508 87.4113 31.3013 86.1445 32.5641C84.8777 33.8268 84.225 35.4722 84.225 37.5003C84.225 39.5283 84.8393 41.1737 86.1445 42.4748C87.4113 43.7375 88.9469 44.388 90.6744 44.388C92.4019 44.388 93.1697 44.0054 94.2446 43.2783C95.3578 42.513 96.164 41.5181 96.5863 40.2936L99.2735 41.5181C98.8128 42.8192 97.8915 44.1202 96.4711 45.2681C95.0507 46.4161 92.9393 47.1814 90.5592 47.1814C88.1791 47.1814 85.8374 46.263 84.0331 44.6942V44.6559Z" fill="white"/>
<path d="M102.383 28.125H105.339V46.9133H102.383V28.125Z" fill="white"/>
<path d="M108.679 42.6278L111.174 41.3268C111.98 43.3549 113.592 44.4263 115.665 44.4263C117.738 44.4263 118.967 43.4314 118.967 41.8625C118.967 40.2936 117.892 39.7197 115.205 38.8778C113.17 38.2273 111.673 37.5003 110.79 36.6967C109.83 35.8549 109.331 34.7069 109.331 33.2528C109.331 31.7987 109.946 30.4595 111.136 29.4263C112.364 28.3549 113.823 27.8574 115.589 27.8574C118.775 27.8574 120.886 29.5028 121.769 31.837L119.312 33.138C118.583 31.3778 117.316 30.4977 115.512 30.4977C113.708 30.4977 112.364 31.5692 112.364 33.0615C112.364 34.5539 113.554 35.2426 115.857 35.9314C118.199 36.6202 119.811 37.4237 120.694 38.3038C121.577 39.184 122.038 40.2936 122.038 41.6712C122.038 43.0487 121.462 44.388 120.311 45.4977C119.159 46.5692 117.585 47.1049 115.627 47.1049C112.326 47.1049 109.754 45.4595 108.679 42.5896V42.6278Z" fill="white"/>
<path d="M65.338 37.8444C60.2706 34.7066 55.3568 31.6837 50.3663 28.5459C54.8578 25.676 59.2341 22.9209 63.6872 20.051C63.3801 19.8214 63.1882 19.7066 62.9962 19.5918C57.0076 15.8036 50.9805 12.0153 44.9918 8.22704C40.6923 5.5102 36.4311 2.7551 32.1315 0H31.9012C31.2486 0.229592 30.6344 0.497449 30.0585 0.841837C20.3461 6.39031 10.7105 11.9388 1.07489 17.5255C0.652612 17.7934 0.230334 18.023 0 18.4821V56.3648C10.7873 62.5255 21.613 68.648 32.4003 74.8087C33.168 75.2296 33.5903 74.8852 34.1278 74.5791C42.0743 69.6429 49.9824 64.7066 57.9289 59.7321C60.3474 58.2398 62.7659 56.7092 65.2612 55.1403C60.4626 52.1939 55.7407 49.324 50.8653 46.3393C55.7791 43.4694 60.5009 40.676 65.338 37.8061V37.8444ZM58.3512 37.7679C55.8559 39.2219 53.4758 40.6378 51.134 42.0153C50.0975 42.6276 49.0227 43.2398 47.9862 43.852C47.6407 44.0434 47.3719 44.1964 46.9497 43.9668C43.4563 41.824 39.9629 39.7194 36.3159 37.5C38.5809 36.0459 40.6923 34.7066 42.842 33.3291C43.1492 33.1378 43.4947 32.9082 43.8018 32.7168C44.8767 32.1046 45.8748 30.8418 46.988 30.9184C48.0629 30.9566 49.0994 32.0281 50.0975 32.6786C52.7848 34.3622 55.5104 36.0459 58.3128 37.8061L58.3512 37.7679ZM32.4386 39.949C32.7458 39.7577 32.9761 39.6811 33.36 39.9107C36.7766 42.0153 40.2316 44.1199 43.725 46.2628C42.9572 46.9515 42.0743 47.3342 41.2681 47.8316C38.5425 49.4388 35.8169 51.0077 33.1296 52.6531C32.5922 52.9975 32.2083 53.0357 31.5941 52.6531C28.4078 50.6633 25.1447 48.7883 21.7665 46.7219C25.4519 44.3878 28.9452 42.1684 32.4386 39.949ZM32.3235 35.051C28.9452 32.9464 25.5286 30.8801 22.112 28.8138C22.0736 28.8138 22.0352 28.699 21.9585 28.5842C25.4519 26.4796 28.9836 24.3367 32.477 22.2321C32.8225 22.0026 33.0913 22.1173 33.3984 22.3087C36.6998 24.375 40.0396 26.4413 43.533 28.5842C42.0743 29.5408 40.6923 30.4209 39.3103 31.301C37.3908 32.5255 35.4714 33.75 33.5519 34.9745C33.1296 35.2423 32.8225 35.3571 32.3235 35.051ZM58.3896 55.1786C56.4701 56.4031 54.5891 57.551 52.7464 58.699C46.6042 62.5255 40.5003 66.352 34.3965 70.2168C33.4751 70.7908 32.7841 70.8673 31.786 70.2934C22.803 65.1275 13.7432 60 4.72184 54.9107C3.99245 54.4898 3.64695 54.0689 3.64695 53.1505C3.68534 42.6658 3.64695 32.1811 3.64695 21.6582C3.64695 20.8546 3.8005 20.3954 4.56828 19.9745C13.3977 14.9235 22.2272 9.83418 31.0183 4.70663C31.6709 4.32398 32.1315 4.36224 32.7458 4.7449C40.5387 9.68112 48.37 14.6173 56.2014 19.5536C56.7772 19.9362 56.8924 20.1276 56.2014 20.5102C53.2838 22.3469 50.3279 24.1837 47.4487 26.0969C46.8729 26.4796 46.5274 26.1735 46.1435 25.9439C41.9591 23.3418 37.7363 20.7398 33.5519 18.1378C33.1296 17.8699 32.7841 17.7934 32.3235 18.0612C26.5267 21.5816 20.73 25.0638 14.8181 28.6224C19.7319 31.6071 24.4921 34.5153 29.4059 37.5383C24.5305 40.6378 19.7703 43.699 14.8565 46.7985C17.6205 48.4439 20.1926 50.0128 22.803 51.5816C25.7206 53.3036 28.5997 55.0638 31.5173 56.824C32.0548 57.1684 32.4386 57.2066 33.0529 56.824C37.506 54.1837 41.9591 51.5816 46.4122 48.9413C46.988 48.5969 47.4103 48.4056 48.0629 48.8265C51.4412 50.9311 54.8578 52.9974 58.3896 55.1786Z" fill="white"/>
<path d="M84.0331 44.6559C82.2288 43.0487 81.0771 40.5232 81.0771 37.5768C81.0771 34.6304 81.9985 32.4875 83.9179 30.6508C85.8374 28.8141 88.0639 27.8574 90.6744 27.8574C93.2848 27.8574 95.1659 28.5845 96.5095 29.7707C97.8531 30.8804 98.7744 32.1814 99.1967 33.5207L96.5095 34.7452C95.5882 32.3345 93.5919 30.6508 90.636 30.6508C87.68 30.6508 87.4113 31.3013 86.1445 32.5641C84.8777 33.8268 84.225 35.4722 84.225 37.5003C84.225 39.5283 84.8393 41.1737 86.1445 42.4748C87.4113 43.7375 88.9469 44.388 90.6744 44.388C92.4019 44.388 93.1697 44.0054 94.2446 43.2783C95.3578 42.513 96.164 41.5181 96.5863 40.2936L99.2735 41.5181C98.8128 42.8192 97.8915 44.1202 96.4711 45.2681C95.0507 46.4161 92.9393 47.1814 90.5592 47.1814C88.1791 47.1814 85.8374 46.263 84.0331 44.6942V44.6559Z" fill="white"/>
<path d="M102.383 28.125H105.339V46.9133H102.383V28.125Z" fill="white"/>
<path d="M108.679 42.6278L111.174 41.3268C111.98 43.3549 113.592 44.4263 115.665 44.4263C117.738 44.4263 118.967 43.4314 118.967 41.8625C118.967 40.2936 117.892 39.7197 115.205 38.8778C113.17 38.2273 111.673 37.5003 110.79 36.6967C109.83 35.8549 109.331 34.7069 109.331 33.2528C109.331 31.7987 109.946 30.4595 111.136 29.4263C112.364 28.3549 113.823 27.8574 115.589 27.8574C118.775 27.8574 120.886 29.5028 121.769 31.837L119.312 33.138C118.583 31.3778 117.316 30.4977 115.512 30.4977C113.708 30.4977 112.364 31.5692 112.364 33.0615C112.364 34.5539 113.554 35.2426 115.857 35.9314C118.199 36.6202 119.811 37.4237 120.694 38.3038C121.577 39.184 122.038 40.2936 122.038 41.6712C122.038 43.0487 121.462 44.388 120.311 45.4977C119.159 46.5692 117.585 47.1049 115.627 47.1049C112.326 47.1049 109.754 45.4595 108.679 42.5896V42.6278Z" fill="white"/>
</g>
<defs>
<clipPath id="clip0_2247_261">
<rect width="122" height="75" fill="white"/>
</clipPath>
</defs>
</svg>
